<svg xmlns="http://www.w3.org/2000/svg" preserveAspectRatio="xMidYMid" width="108.937" height="121.47"><path d="M94.897 79.677c-4.322-.006-8.336-1.967-11.012-5.381l-2.941-3.753-2.779 3.875c-2.636 3.676-6.903 5.867-11.41 5.861-2.905-.003-5.693-.892-8.063-2.57l-3.223-2.283-1.952 3.436c-3.176 5.596-9.135 9.067-15.553 9.058-5.985-.008-11.539-2.997-14.858-7.996l-1.568-2.361-2.655.988c-1.565.581-3.211.875-4.894.873-7.725-.01-14.003-6.309-13.993-14.04C.003 59.58 3.5 54.462 8.907 52.346l2.323-.909-.066-2.857c.008-5.668 3.122-10.808 8.153-14.582-.163-1.007-.25-2.038-.249-3.092.005-3.675 1.052-7.108 2.857-10.024-4.564-4.227-9.021-9.88-9.935-16.362-.307-2.174 1.206-4.185 3.379-4.491.193-.027.384-.041.572-.04 1.945.002 3.639 1.44 3.917 3.422.576 4.096 3.86 8.263 7.585 11.701 3.073-2.098 6.786-3.326 10.78-3.321 8.594.012 15.875 5.721 18.27 13.544 3.372-1.016 6.968-1.547 10.655-1.543 16.263.022 29.479 10.268 29.462 22.842-.001.551-.034 1.147-.104 1.821l-.307 2.932 2.817.862c5.937 1.814 9.922 7.209 9.914 13.426-.01 7.732-6.306 14.012-14.033 14.002zM38.216 17.356c-2.235-.003-4.339.548-6.2 1.505 1.353.992 2.645 1.845 3.766 2.519 1.88 1.131 2.488 3.573 1.358 5.454-.746 1.243-2.064 1.931-3.415 1.929-.695-.001-1.398-.184-2.037-.568-1.197-.72-3.177-1.981-5.434-3.694-1.031 1.911-1.621 4.094-1.624 6.412-.01 7.487 6.069 13.584 13.55 13.594 7.481.01 13.576-6.071 13.586-13.558.009-7.484-6.069-13.583-13.55-13.593zM31.851 92.5s1.146 11.077 1.444 16.394c.114 2.038 1.422 2.951 2.223 3.158.744.192 2.153.182 2.805-.126.907-.43 1.783-.782 1.838-3.277.104-4.651-1.095-15.402-1.095-15.402 1.961-.084 3.88-.396 5.732-.922 0 0 .399 15.995.742 18.191.347 2.227 1.972 2.761 3.454 2.762 1.549 0 3.308-.846 3.281-3.334-.025-2.276-.232-21.006-.232-21.006 2.148-1.46 4.081-3.248 5.702-5.331.133.063.271.118.404.178 0 0-.375 24.425-.276 26.287.133 2.489 1.778 3.442 3.603 3.445 1.849.002 3.547-1.278 3.796-3.276.231-1.85.701-24.628.701-24.628.263.011.527.024.791.024 1.876.003 3.721-.252 5.497-.73 0 0-1.451 21.646-1.203 23.271.346 2.28 1.768 3.282 3.679 3.285 1.817.002 3.391-1.374 3.733-3.805.214-1.521 2.453-27.451 2.453-27.451.091-.08.184-.157.272-.24 3.221 2.762 7.189 4.471 11.441 4.931l-4.613 29.515c-.607 3.888-4.323 7.065-8.256 7.059l-49.735-.065c-3.934-.005-7.642-3.191-8.239-7.081l-4.576-29.793c.521-.079 1.041-.17 1.556-.288 3.4 4.097 7.984 6.964 13.078 8.255z" fill="#fff" fill-rule="evenodd"/></svg>