<svg viewBox="0 0 39 43" xmlns="http://www.w3.org/2000/svg" fill="#989893"><path d="M33.684 28.274c-1.535-.002-2.96-.698-3.91-1.91l-1.044-1.331-.987 1.375c-.936 1.304-2.45 2.082-4.051 2.08-1.031-.002-2.021-.317-2.862-.912l-1.145-.811-.693 1.22c-1.127 1.986-3.243 3.217-5.521 3.214-2.125-.003-4.097-1.063-5.275-2.838l-.557-.837-.943.351c-.555.206-1.139.31-1.737.309-2.743-.003-4.972-2.239-4.968-4.982.003-2.06 1.244-3.876 3.164-4.627l.824-.322-.023-1.014c.003-2.011 1.109-3.835 2.894-5.175-.058-.357-.088-.723-.088-1.097.002-1.304.374-2.522 1.015-3.557-1.621-1.5-3.203-3.506-3.528-5.806C4.14.832 4.677.119 5.449.01c.068-.01.136-.014.203-.014.69.001 1.292.511 1.39 1.214.205 1.454 1.371 2.932 2.693 4.152 1.092-.744 2.41-1.18 3.828-1.178 3.051.004 5.636 2.03 6.486 4.806 1.197-.36 2.474-.549 3.783-.547 5.774.007 10.466 3.643 10.46 8.105-.001.196-.013.407-.037.646l-.109 1.041 1 .306c2.108.644 3.523 2.558 3.52 4.764-.004 2.744-2.239 4.973-4.982 4.969zM13.56 6.159c-.793-.001-1.54.194-2.201.534.48.352.939.654 1.337.894.667.401.883 1.268.482 1.935-.265.441-.733.685-1.212.685-.247-.001-.497-.066-.723-.202-.425-.255-1.128-.703-1.93-1.311-.366.678-.575 1.453-.576 2.276-.004 2.656 2.155 4.82 4.811 4.824 2.655.003 4.819-2.155 4.823-4.812.003-2.656-2.155-4.82-4.811-4.823zM11.3 32.824s.407 3.931.513 5.818c.041.723.505 1.047.789 1.12.264.069.765.065.996-.044.322-.153.633-.278.653-1.163.037-1.651-.389-5.466-.389-5.466.696-.029 1.378-.14 2.035-.327 0 0 .142 5.676.263 6.455.124.791.701.98 1.227.98.55 0 1.174-.3 1.164-1.182-.008-.808-.082-7.455-.082-7.455.763-.518 1.449-1.152 2.025-1.892.047.023.096.043.143.064 0 0-.133 8.667-.098 9.328.047.883.631 1.221 1.279 1.222.656.001 1.259-.453 1.348-1.162.082-.657.249-8.74.249-8.74.093.004.187.009.281.009.665.001 1.321-.09 1.951-.259 0 0-.515 7.681-.427 8.258.123.809.628 1.165 1.306 1.165.645.001 1.204-.487 1.326-1.35.076-.539.87-9.741.87-9.741.033-.029.066-.056.097-.085 1.143.98 2.552 1.587 4.062 1.75L31.243 40.6c-.216 1.38-1.535 2.507-2.931 2.505l-17.657-.023C9.258 43.08 7.941 41.95 7.73 40.57L6.105 29.997c.185-.028.369-.06.552-.102 1.207 1.454 2.835 2.471 4.643 2.929z" class="cls-1"/></svg>