<svg viewBox="0 0 34 466" xmlns="http://www.w3.org/2000/svg" xmlns:bx="https://boxy-svg.com"><path d="M26.171 145.928H7.758c-1.247 0-2.258-1.011-2.258-2.258v-21.411c0-1.248 1.011-2.259 2.258-2.259h18.413c1.247 0 2.259 1.011 2.259 2.259v21.411c0 1.247-1.012 2.258-2.259 2.258zm.327-23.997H7.431v4.101h19.067v-4.101zm0 19.168V128.068H7.431V143.997h19.067v-2.898zm-9.541-11.618c3.787 0 6.867 3.08 6.867 6.867 0 3.786-3.08 6.866-6.867 6.866-3.786 0-6.866-3.08-6.866-6.866 0-3.787 3.08-6.867 6.866-6.867zm0 11.791c2.716 0 4.926-2.209 4.926-4.924 0-2.716-2.21-4.925-4.926-4.925-2.715 0-4.924 2.209-4.924 4.925 0 2.715 2.209 4.924 4.924 4.924zm1.159-2.307c.456 0 .897-.071 1.316-.197-.655.644-1.547 1.046-2.52 1.046-1.97 0-3.614-1.644-3.614-3.614 0-.407.073-.798.202-1.166.37 2.205 2.319 3.931 4.616 3.931zm-1.489-15.986c1.245 0 1.245 1.932 0 1.932-1.246 0-1.246-1.932 0-1.932zm3.199 0c1.245 0 1.245 1.932 0 1.932-1.246 0-1.246-1.932 0-1.932zm3.258 0c1.246 0 1.246 1.932 0 1.932-1.245 0-1.245-1.932 0-1.932z" class="cls-1" bx:origin="0.48 0.5" fill="#343434" fill-rule="evenodd"/><path d="M27.826 178.078l-3.288-1.898 2.385-.396c.47-.078.787-.522.709-.992-.078-.47-.513-.791-.992-.71l-4.454.74-3.097-1.788 3.097-1.788 4.454.74c.048.008.095.011.142.011.414 0 .78-.299.85-.721.078-.47-.239-.914-.709-.992l-2.385-.396 3.288-1.898c.516-.298.693-.957.395-1.473-.298-.515-.956-.692-1.473-.395l-3.288 1.898.85-2.262c.166-.446-.059-.944-.505-1.111-.446-.167-.943.058-1.111.504l-1.587 4.228-3.096 1.787v-3.575l2.868-3.487c.302-.368.249-.912-.119-1.215-.368-.303-.912-.248-1.214.119l-1.535 1.866v-3.796c0-.596-.483-1.078-1.078-1.078-.596 0-1.078.482-1.078 1.078v3.796l-1.535-1.866c-.302-.367-.846-.422-1.214-.119s-.421.847-.119 1.215l2.868 3.487v3.575l-3.096-1.787-1.587-4.228c-.169-.446-.665-.671-1.111-.504-.446.167-.671.665-.505 1.111l.849 2.262-3.287-1.898c-.517-.297-1.175-.12-1.474.395-.297.516-.12 1.175.395 1.473l3.289 1.898-2.385.396c-.47.078-.787.522-.709.992.07.422.436.721.85.721.046 0 .094-.003.142-.011l4.454-.74 3.096 1.788-2.802 1.618-4.712-.782c-.588-.101-1.143.299-1.241.887-.098.587.3 1.142.887 1.24l2.126.352-2.995 1.729c-.515.298-.692.957-.395 1.473.201.346.563.539.935.539.183 0 .369-.046.539-.144l3.287-1.899-.849 2.263c-.166.446.059.943.505 1.111.1.037.202.055.303.055.349 0 .677-.213.808-.56l1.587-4.227 3.096-1.788v3.576l-2.868 3.487c-.302.368-.249.912.119 1.215.16.131.355.196.547.196.249 0 .496-.108.667-.315l1.535-1.866v3.796c0 .596.482 1.078 1.078 1.078.595 0 1.078-.482 1.078-1.078v-3.796l1.535 1.866c.171.207.418.315.667.315.192 0 .387-.065.547-.196.368-.303.421-.847.119-1.215l-2.868-3.487v-3.576l3.096 1.788 1.587 4.227c.13.347.459.56.808.56.101 0 .203-.018.303-.055.446-.168.671-.665.505-1.111l-.85-2.263 3.288 1.899c.17.098.356.144.539.144.372 0 .734-.193.934-.539.298-.516.121-1.175-.395-1.473z" class="cls-1" fill="#333" fill-rule="evenodd"/><g transform="translate(3.000229 79)"><rect x="1" y="1" width="26" height="26" rx="4" ry="4" class="cls-1" fill="none" stroke="#333" stroke-width="2"/><path d="M13.067 15.317c1.663 0 2.972-.398 3.925-1.195.953-.798 1.43-1.862 1.43-3.194 0-.9-.22-1.705-.661-2.414-.441-.71-1.063-1.257-1.866-1.641-.804-.385-1.727-.577-2.771-.577H7.675V19.95h3.292v-4.633h2.1zm-2.1-6.48h2.194c.594.007 1.063.2 1.407.582.344.381.516.891.516 1.528 0 .582-.168 1.032-.502 1.351-.335.318-.821.478-1.458.478h-2.157V8.837z" class="cls-2" fill="#323232" fill-rule="evenodd"/></g><path d="M32.266 51.282v9.658c0 .63-.442 1.14-1.071 1.14s-1.139-.51-1.139-1.14V40.033c2.57-.145 5.538 9.296 2.21 11.249zM16.962 62.717c-6.273 0-11.357-5.084-11.357-11.358C5.605 45.086 10.689 40 16.962 40c6.272 0 11.359 5.086 11.359 11.359 0 6.274-5.087 11.358-11.359 11.358zm0-20.186c-4.874 0-8.826 3.952-8.826 8.828 0 4.874 3.952 8.826 8.826 8.826 4.876 0 8.826-3.952 8.826-8.826 0-4.876-3.95-8.828-8.826-8.828zm-.001 14.611c-3.194 0-5.782-2.59-5.782-5.781 0-3.195 2.589-5.782 5.782-5.782 3.194 0 5.782 2.587 5.782 5.782 0 3.191-2.588 5.781-5.782 5.781zM3.702 60.939c0 .63-.442 1.139-1.071 1.139s-1.14-.509-1.14-1.139V48.114C.608 47.571 0 46.437 0 45.119v-5.068l1.33 5.068.476-5.068.852 5.068.838-5.109.422 5.109 1.328-5.068v5.068c0 1.343-.634 2.498-1.544 3.027v12.793zM31.19 5.95C27.492 2.114 22.532 0 17.221 0 11.944 0 7.006 2.088 3.315 5.879c-.428.441-.42 1.145.023 1.575.44.429 1.146.42 1.576-.021 3.267-3.357 7.638-5.205 12.308-5.205 4.699 0 9.09 1.872 12.365 5.267.22.227.51.343.802.343.278 0 .557-.105.774-.312.442-.427.453-1.133.027-1.576zm-13.969-.262c-3.76 0-7.272 1.498-9.887 4.216-.427.444-.412 1.149.03 1.576.445.427 1.149.414 1.576-.03 2.191-2.278 5.132-3.535 8.281-3.535 3.179 0 6.14 1.278 8.336 3.596.218.231.513.349.81.349.275 0 .55-.102.766-.305.446-.424.465-1.129.042-1.575-2.623-2.768-6.158-4.292-9.954-4.292zm0 5.663c-2.224 0-4.373.937-5.894 2.572-.419.449-.395 1.155.055 1.574.449.421 1.156.396 1.575-.055 1.118-1.201 2.633-1.864 4.264-1.864 1.636 0 3.207.7 4.314 1.921.218.243.523.364.825.364.266 0 .535-.094.749-.288.456-.415.489-1.118.076-1.574-1.53-1.684-3.703-2.65-5.964-2.65zm0 5.99c-1.144 0-2.072.927-2.072 2.071 0 1.143.928 2.071 2.072 2.071 1.145 0 2.071-.926 2.071-2.071 0-1.146-.926-2.071-2.071-2.071zM28.03 225.987H5.912c-1.056 0-1.912-.856-1.912-1.913v-22.161c0-1.057.856-1.913 1.912-1.913H28.03c1.056 0 1.912.856 1.912 1.913v22.161c0 1.057-.856 1.913-1.912 1.913zm0-23.795c0-.154-.125-.279-.279-.279H6.191c-.154 0-.279.125-.279.279v21.603c0 .154.125.279.279.279h21.56c.154 0 .279-.125.279-.279v-21.603zm-5.737 18.514c-.105 0-.203-.056-.256-.147l-3.53-6.102c-.052-.09-.052-.2 0-.29.052-.089.15-.145.256-.145h7.06c.104 0 .202.056.255.145.053.09.053.2 0 .29l-3.529 6.102c-.054.091-.152.147-.256.147zm-3.53-8.616c-.105 0-.203-.056-.256-.144-.052-.09-.052-.201 0-.291l3.53-6.101c.053-.092.151-.148.256-.148.104 0 .202.056.256.148l3.529 6.101c.053.09.053.201 0 .291-.052.088-.15.144-.255.144h-7.06zm-4.12 4.313l-.395 4.908c-.06.738-.676 1.307-1.417 1.307h-1.144c-.739 0-1.355-.566-1.416-1.303l-.409-4.912c-1.056 0-1.912-.858-1.912-1.913v-3.346c0-1.057.856-1.913 1.912-1.913h.717l1.673 3.06 1.674-3.06h.717c1.056 0 1.912.856 1.912 1.913v3.346c0 1.055-.856 1.913-1.912 1.913zm-2.391-8.128c-1.32 0-2.39-1.07-2.39-2.391 0-1.32 1.07-2.39 2.39-2.39 1.321 0 2.391 1.07 2.391 2.39 0 1.321-1.07 2.391-2.391 2.391z" class="cls-1" fill="#343434" fill-rule="evenodd"/><path d="M26.171 385.928H7.758c-1.247 0-2.258-1.011-2.258-2.258v-21.411c0-1.248 1.011-2.259 2.258-2.259h18.413c1.247 0 2.259 1.011 2.259 2.259v21.411c0 1.247-1.012 2.258-2.259 2.258zm.327-23.997H7.431v4.101h19.067v-4.101zm0 19.168V368.068H7.431V383.997h19.067v-2.898zm-9.541-11.618c3.787 0 6.867 3.08 6.867 6.867 0 3.786-3.08 6.866-6.867 6.866-3.786 0-6.866-3.08-6.866-6.866 0-3.787 3.08-6.867 6.866-6.867zm0 11.791c2.716 0 4.926-2.209 4.926-4.924 0-2.716-2.21-4.925-4.926-4.925-2.715 0-4.924 2.209-4.924 4.925 0 2.715 2.209 4.924 4.924 4.924zm1.159-2.307c.456 0 .897-.071 1.316-.197-.655.644-1.547 1.046-2.52 1.046-1.97 0-3.614-1.644-3.614-3.614 0-.407.073-.798.202-1.166.37 2.205 2.319 3.931 4.616 3.931zm-1.489-15.986c1.245 0 1.245 1.932 0 1.932-1.246 0-1.246-1.932 0-1.932zm3.199 0c1.245 0 1.245 1.932 0 1.932-1.246 0-1.246-1.932 0-1.932zm3.258 0c1.246 0 1.246 1.932 0 1.932-1.245 0-1.245-1.932 0-1.932zM27.826 418.078l-3.288-1.898 2.385-.396c.47-.078.787-.522.709-.992-.078-.47-.513-.791-.992-.71l-4.454.74-3.097-1.788 3.097-1.788 4.454.74c.048.008.095.011.142.011.414 0 .78-.299.85-.721.078-.47-.239-.914-.709-.992l-2.385-.396 3.288-1.898c.516-.298.693-.957.395-1.473-.298-.515-.956-.692-1.473-.395l-3.288 1.898.85-2.262c.166-.446-.059-.944-.505-1.111-.446-.167-.943.058-1.111.504l-1.587 4.228-3.096 1.787v-3.575l2.868-3.487c.302-.368.249-.912-.119-1.215-.368-.303-.912-.248-1.214.119l-1.535 1.866v-3.796c0-.596-.483-1.078-1.078-1.078-.596 0-1.078.482-1.078 1.078v3.796l-1.535-1.866c-.302-.367-.846-.422-1.214-.119s-.421.847-.119 1.215l2.868 3.487v3.575l-3.096-1.787-1.587-4.228c-.169-.446-.665-.671-1.111-.504-.446.167-.671.665-.505 1.111l.849 2.262-3.287-1.898c-.517-.297-1.175-.12-1.474.395-.297.516-.12 1.175.395 1.473l3.289 1.898-2.385.396c-.47.078-.787.522-.709.992.07.422.436.721.85.721.046 0 .094-.003.142-.011l4.454-.74 3.096 1.788-2.802 1.618-4.712-.782c-.588-.101-1.143.299-1.241.887-.098.587.3 1.142.887 1.24l2.126.352-2.995 1.729c-.515.298-.692.957-.395 1.473.201.346.563.539.935.539.183 0 .369-.046.539-.144l3.287-1.899-.849 2.263c-.166.446.059.943.505 1.111.1.037.202.055.303.055.349 0 .677-.213.808-.56l1.587-4.227 3.096-1.788v3.576l-2.868 3.487c-.302.368-.249.912.119 1.215.16.131.355.196.547.196.249 0 .496-.108.667-.315l1.535-1.866v3.796c0 .596.482 1.078 1.078 1.078.595 0 1.078-.482 1.078-1.078v-3.796l1.535 1.866c.171.207.418.315.667.315.192 0 .387-.065.547-.196.368-.303.421-.847.119-1.215l-2.868-3.487v-3.576l3.096 1.788 1.587 4.227c.13.347.459.56.808.56.101 0 .203-.018.303-.055.446-.168.671-.665.505-1.111l-.85-2.263 3.288 1.899c.17.098.356.144.539.144.372 0 .734-.193.934-.539.298-.516.121-1.175-.395-1.473zM32.266 291.282v9.658c0 .63-.442 1.14-1.071 1.14s-1.139-.51-1.139-1.14v-20.907c2.57-.145 5.538 9.296 2.21 11.249zm-15.304 11.435c-6.273 0-11.357-5.084-11.357-11.358 0-6.273 5.084-11.359 11.357-11.359 6.272 0 11.359 5.086 11.359 11.359 0 6.274-5.087 11.358-11.359 11.358zm0-20.186c-4.874 0-8.826 3.952-8.826 8.828 0 4.874 3.952 8.826 8.826 8.826 4.876 0 8.826-3.952 8.826-8.826 0-4.876-3.95-8.828-8.826-8.828zm-.001 14.611c-3.194 0-5.782-2.59-5.782-5.781 0-3.195 2.589-5.782 5.782-5.782 3.194 0 5.782 2.587 5.782 5.782 0 3.191-2.588 5.781-5.782 5.781zm-13.259 3.797c0 .63-.442 1.139-1.071 1.139s-1.14-.509-1.14-1.139v-12.825C.608 287.571 0 286.437 0 285.119v-5.068l1.33 5.068.476-5.068.852 5.068.838-5.109.422 5.109 1.328-5.068v5.068c0 1.343-.634 2.498-1.544 3.027v12.793zM31.19 245.95c-3.698-3.836-8.658-5.95-13.969-5.95-5.277 0-10.215 2.088-13.906 5.879-.428.441-.42 1.145.023 1.575.44.429 1.146.42 1.576-.021 3.267-3.357 7.638-5.205 12.308-5.205 4.699 0 9.09 1.872 12.365 5.267.22.227.51.343.802.343.278 0 .557-.105.774-.312.442-.427.453-1.133.027-1.576zm-13.969-.262c-3.76 0-7.272 1.498-9.887 4.216-.427.444-.412 1.149.03 1.576.445.427 1.149.414 1.576-.03 2.191-2.278 5.132-3.535 8.281-3.535 3.179 0 6.14 1.278 8.336 3.596.218.231.513.349.81.349.275 0 .55-.102.766-.305.446-.424.465-1.129.042-1.575-2.623-2.768-6.158-4.292-9.954-4.292zm0 5.663c-2.224 0-4.373.937-5.894 2.572-.419.449-.395 1.155.055 1.574.449.421 1.156.396 1.575-.055 1.118-1.201 2.633-1.864 4.264-1.864 1.636 0 3.207.7 4.314 1.921.218.243.523.364.825.364.266 0 .535-.094.749-.288.456-.415.489-1.118.076-1.574-1.53-1.684-3.703-2.65-5.964-2.65zm0 5.99c-1.144 0-2.072.927-2.072 2.071 0 1.143.928 2.071 2.072 2.071 1.145 0 2.071-.926 2.071-2.071 0-1.146-.926-2.071-2.071-2.071zM28.03 465.987H5.912c-1.056 0-1.912-.856-1.912-1.913v-22.161c0-1.057.856-1.913 1.912-1.913H28.03c1.056 0 1.912.856 1.912 1.913v22.161c0 1.057-.856 1.913-1.912 1.913zm0-23.795c0-.154-.125-.279-.279-.279H6.191c-.154 0-.279.125-.279.279v21.603c0 .154.125.279.279.279h21.56c.154 0 .279-.125.279-.279v-21.603zm-5.737 18.514c-.105 0-.203-.056-.256-.147l-3.53-6.102c-.052-.09-.052-.2 0-.29.052-.089.15-.145.256-.145h7.06c.104 0 .202.056.255.145.053.09.053.2 0 .29l-3.529 6.102c-.054.091-.152.147-.256.147zm-3.53-8.616c-.105 0-.203-.056-.256-.144-.052-.09-.052-.201 0-.291l3.53-6.101c.053-.092.151-.148.256-.148.104 0 .202.056.256.148l3.529 6.101c.053.09.053.201 0 .291-.052.088-.15.144-.255.144h-7.06zm-4.12 4.313l-.395 4.908c-.06.738-.676 1.307-1.417 1.307h-1.144c-.739 0-1.355-.566-1.416-1.303l-.409-4.912c-1.056 0-1.912-.858-1.912-1.913v-3.346c0-1.057.856-1.913 1.912-1.913h.717l1.673 3.06 1.674-3.06h.717c1.056 0 1.912.856 1.912 1.913v3.346c0 1.055-.856 1.913-1.912 1.913zm-2.391-8.128c-1.32 0-2.39-1.07-2.39-2.391 0-1.32 1.07-2.39 2.39-2.39 1.321 0 2.391 1.07 2.391 2.39 0 1.321-1.07 2.391-2.391 2.391z" class="cls-1" fill-rule="evenodd" fill="#fff"/><g transform="translate(3.000228 319)"><rect x="1" y="1" width="26" height="26" rx="4" ry="4" class="cls-1" fill="none" stroke-width="2" stroke="#fff"/><path d="M13.067 15.317c1.663 0 2.972-.398 3.925-1.195.953-.798 1.43-1.862 1.43-3.194 0-.9-.22-1.705-.661-2.414-.441-.71-1.063-1.257-1.866-1.641-.804-.385-1.727-.577-2.771-.577H7.675V19.95h3.292v-4.633h2.1zm-2.1-6.48h2.194c.594.007 1.063.2 1.407.582.344.381.516.891.516 1.528 0 .582-.168 1.032-.502 1.351-.335.318-.821.478-1.458.478h-2.157V8.837z" class="cls-2" fill-rule="evenodd" stroke="#fff" fill="#fff"/></g></svg>