<svg viewBox="0 0 29 274" xmlns="http://www.w3.org/2000/svg"><path d="M14.114 133.228C6.319 133.228 0 126.909 0 119.114 0 111.319 6.319 105 14.114 105c7.795 0 14.114 6.319 14.114 14.114 0 7.795-6.319 14.114-14.114 14.114zm4.686-13.792c-.453-.491-1.059-.814-1.813-.974v-.064c.524-.221.936-.563 1.233-1.029.3-.465.449-.995.449-1.592 0-.516-.109-.971-.325-1.366-.216-.392-.544-.709-.982-.945-.404-.219-.838-.361-1.301-.428-.462-.071-1.143-.104-2.04-.104H9.7v12.229h4.895c.85 0 1.547-.076 2.097-.23.553-.155 1.058-.41 1.517-.771.39-.303.698-.681.928-1.14.23-.461.345-.996.345-1.605 0-.83-.227-1.49-.682-1.981zm-3.285 3.246c-.317.137-.631.21-.936.221-.306.012-.859.017-1.657.017h-.166v-3.062h.567c.546 0 .984.003 1.309.012.325.008.583.047.768.121.306.108.535.268.69.484.154.213.229.508.229.886 0 .294-.064.559-.193.791-.129.233-.331.409-.611.53zm-.614-5.105c-.224.103-.443.159-.653.171-.211.011-.581.016-1.105.016h-.387v-2.587h.213c.547 0 .959.003 1.237.011.277.008.516.056.717.146.216.092.373.244.474.451.101.207.152.41.152.608 0 .267-.048.503-.141.707-.092.202-.263.361-.507.477zM14.114 63.228C6.319 63.228 0 56.909 0 49.114 0 41.319 6.319 35 14.114 35c7.795 0 14.114 6.319 14.114 14.114 0 7.795-6.319 14.114-14.114 14.114zm7.21-19.634c0-.867-.702-1.569-1.569-1.569H8.667c-.867 0-1.569.702-1.569 1.569l-.001 11.073c0 .867.703 1.569 1.569 1.569h11.089c.867 0 1.569-.702 1.569-1.569V43.594zm-2.088 2.807h-1.677c-.303 0-.55-.246-.55-.55v-1.677c0-.304.247-.55.55-.55h1.677c.304 0 .55.246.55.55v1.677c0 .304-.246.55-.55.55zm-5.003 5.312c-1.41 0-2.552-1.143-2.552-2.553 0-1.411 1.142-2.553 2.552-2.553 1.411 0 2.758 1.029 2.758 2.552 0 1.524-1.347 2.554-2.758 2.554zm0 1.877c2.444 0 4.426-1.982 4.426-4.426 0-.384-.049-.758-.141-1.113.794.001 1.241-.001 1.241-.001v6.104c0 .303-.246.55-.55.55H9.257c-.304 0-.55-.247-.55-.55V48.05s.251.001 1.241.001c-.093.355-.142.729-.142 1.113 0 2.444 1.982 4.426 4.427 4.426zM14.115 28.228C6.32 28.228.001 21.909.001 14.114.001 6.319 6.32 0 14.115 0c7.794 0 14.113 6.319 14.113 14.114 0 7.795-6.319 14.114-14.113 14.114zm7.777-19.801c-.633.376-1.334.648-2.08.795-.598-.637-1.449-1.035-2.392-1.035-1.809 0-3.276 1.467-3.276 3.276 0 .257.029.507.085.747-2.722-.137-5.136-1.441-6.752-3.423-.282.484-.444 1.047-.444 1.647 0 1.136.579 2.139 1.458 2.727-.537-.017-1.043-.165-1.484-.41v.041c0 1.587 1.129 2.911 2.627 3.213-.274.074-.564.114-.863.114-.211 0-.416-.02-.616-.059.417 1.302 1.627 2.249 3.06 2.275-1.121.879-2.533 1.403-4.068 1.403-.265 0-.526-.015-.782-.046 1.45.93 3.172 1.472 5.022 1.472 6.026 0 9.321-4.992 9.321-9.321 0-.142-.003-.283-.01-.424.641-.462 1.196-1.039 1.635-1.695-.587.26-1.219.436-1.881.515.676-.405 1.195-1.047 1.44-1.812zM14.115 98.228C6.32 98.228.001 91.909.001 84.114.001 76.319 6.32 70 14.115 70c7.795 0 14.114 6.319 14.114 14.114 0 7.795-6.319 14.114-14.114 14.114zm3.516-22.769H15.12c-2.963 0-3.672 1.39-3.672 3.905v1.978H9.749v2.778h1.699v8.357h3.363V84.12h2.466l.257-2.778h-2.723l.004-1.67c0-.804.076-1.129 1.23-1.129h1.586v-3.084z" class="cls-1" fill="#484846" fill-rule="evenodd"/><path d="M14.115 273.228c-7.795 0-14.114-6.319-14.114-14.114C.001 251.319 6.32 245 14.115 245c7.795 0 14.114 6.319 14.114 14.114 0 7.795-6.319 14.114-14.114 14.114zm4.686-13.792c-.453-.491-1.059-.814-1.813-.974v-.064c.524-.221.936-.563 1.233-1.029.3-.465.449-.995.449-1.592 0-.516-.109-.971-.325-1.366-.216-.392-.544-.709-.982-.945-.404-.219-.838-.361-1.301-.428-.462-.071-1.143-.104-2.04-.104H9.701v12.229h4.895c.85 0 1.547-.076 2.097-.23.553-.155 1.058-.41 1.517-.771.39-.303.698-.681.928-1.14.23-.461.345-.996.345-1.605 0-.83-.227-1.49-.682-1.981zm-3.285 3.246c-.317.137-.631.21-.936.221-.306.012-.859.017-1.657.017h-.166v-3.062h.567c.546 0 .984.003 1.309.012.325.008.583.047.768.121.306.108.535.268.69.484.154.213.229.508.229.886 0 .294-.064.559-.193.791-.129.233-.331.409-.611.53zm-.614-5.105c-.224.103-.443.159-.653.171-.211.011-.581.016-1.105.016h-.387v-2.587h.213c.547 0 .959.003 1.237.011.277.008.516.056.717.146.216.092.373.244.474.451.101.207.152.41.152.608 0 .267-.048.503-.141.707-.092.202-.263.361-.507.477zM14.115 203.228c-7.795 0-14.114-6.319-14.114-14.114C.001 181.319 6.32 175 14.115 175c7.795 0 14.114 6.319 14.114 14.114 0 7.795-6.319 14.114-14.114 14.114zm7.21-19.634c0-.867-.702-1.569-1.569-1.569H8.668c-.867 0-1.569.702-1.569 1.569l-.001 11.073c0 .867.703 1.569 1.569 1.569h11.089c.867 0 1.569-.702 1.569-1.569v-11.073zm-2.088 2.807H17.56c-.303 0-.55-.246-.55-.55v-1.677c0-.304.247-.55.55-.55h1.677c.304 0 .55.246.55.55v1.677c0 .304-.246.55-.55.55zm-5.003 5.312c-1.41 0-2.552-1.143-2.552-2.553 0-1.411 1.142-2.553 2.552-2.553 1.411 0 2.758 1.029 2.758 2.552 0 1.524-1.347 2.554-2.758 2.554zm0 1.877c2.444 0 4.426-1.982 4.426-4.426 0-.384-.049-.758-.141-1.113.794.001 1.241-.001 1.241-.001v6.104c0 .303-.246.55-.55.55H9.258c-.304 0-.55-.247-.55-.55v-6.104s.251.001 1.241.001c-.093.355-.142.729-.142 1.113 0 2.444 1.982 4.426 4.427 4.426zM14.116 168.228c-7.795 0-14.114-6.319-14.114-14.114C.002 146.319 6.321 140 14.116 140c7.794 0 14.113 6.319 14.113 14.114 0 7.795-6.319 14.114-14.113 14.114zm7.777-19.801c-.633.376-1.334.648-2.08.795-.598-.637-1.449-1.035-2.392-1.035-1.809 0-3.276 1.467-3.276 3.276 0 .257.029.507.085.747-2.722-.137-5.136-1.441-6.752-3.423-.282.484-.444 1.047-.444 1.647 0 1.136.579 2.139 1.458 2.727-.537-.017-1.043-.165-1.484-.41v.041c0 1.587 1.129 2.911 2.627 3.213-.274.074-.564.114-.863.114-.211 0-.416-.02-.616-.059.417 1.302 1.627 2.249 3.06 2.275-1.121.879-2.533 1.403-4.068 1.403-.265 0-.526-.015-.782-.046 1.45.93 3.172 1.472 5.022 1.472 6.026 0 9.321-4.992 9.321-9.321 0-.142-.003-.283-.01-.424.641-.462 1.196-1.039 1.635-1.695-.587.26-1.219.436-1.881.515.676-.405 1.195-1.047 1.44-1.812zM14.116 238.228c-7.795 0-14.114-6.319-14.114-14.114C.002 216.319 6.321 210 14.116 210c7.795 0 14.114 6.319 14.114 14.114 0 7.795-6.319 14.114-14.114 14.114zm3.516-22.769h-2.511c-2.963 0-3.672 1.39-3.672 3.905v1.978H9.75v2.778h1.699v8.357h3.363v-8.357h2.466l.257-2.778h-2.723l.004-1.67c0-.804.076-1.129 1.23-1.129h1.586v-3.084z" class="cls-1" fill-rule="evenodd" fill="#ff5635"/></svg>